name rise30.9205peak61.366fall85.3838.mot
datacolumns 19
datarows 23
range 0.72833000000000 0.76499800000000
endheader
time	ground_force1_vx	ground_force1_vy	ground_force1_vz	ground_force1_px	ground_force1_py	ground_force1_pz	ground_force2_vx	ground_force2_vy	ground_force2_vz	ground_force2_px	ground_force2_py	ground_force2_pz	ground_torque1_x	ground_torque1_y	ground_torque1_z	ground_torque2_x	ground_torque2_y	ground_torque2_z	
0.72833000000000	-7.33302100000000	40.96284900000000	-9.70060200000000	0.32965800000000	0.00000000000000	0.08064000000000	-68.50157600000000	777.19966099999999	-57.24496500000000	0.11067700000000	0.00000000000000	-0.10641000000000	0.00000000000000	-6.85413000000000	0.00000000000000	0.00000000000000	-24.32271500000000	0.00000000000000	
0.73000000000000	-8.06323500000000	47.95651300000000	-10.90667700000000	0.33494800000000	0.00000000000000	0.08165200000000	-69.14315100000000	774.23705399999994	-56.97321100000000	0.10985400000000	0.00000000000000	-0.10641900000000	0.00000000000000	-7.77950200000000	0.00000000000000	0.00000000000000	-24.32047600000000	0.00000000000000	
0.73166300000000	-8.65860700000000	55.02580900000000	-12.00153400000000	0.33980600000000	0.00000000000000	0.08257100000000	-69.78421299999999	771.16868199999999	-56.68336900000000	0.10903800000000	0.00000000000000	-0.10642600000000	0.00000000000000	-8.63980200000000	0.00000000000000	0.00000000000000	-24.31756900000000	0.00000000000000	
0.73332800000000	-9.09844900000000	62.07945500000000	-12.95930800000000	0.34429200000000	0.00000000000000	0.08341000000000	-70.42409400000000	767.99319200000002	-56.37508500000000	0.10823000000000	0.00000000000000	-0.10643000000000	0.00000000000000	-9.41510000000000	0.00000000000000	0.00000000000000	-24.31386800000000	0.00000000000000	
0.73499800000000	-9.36996900000000	69.04911300000001	-13.76277400000000	0.34845400000000	0.00000000000000	0.08418100000000	-71.06208800000000	764.70919400000002	-56.04800900000000	0.10743100000000	0.00000000000000	-0.10643200000000	0.00000000000000	-10.09146300000000	0.00000000000000	0.00000000000000	-24.30923400000000	0.00000000000000	
0.73666900000000	-9.46819600000000	75.89146000000000	-14.40347400000000	0.35233500000000	0.00000000000000	0.08489400000000	-71.69744799999999	761.31526499999995	-55.70180100000000	0.10664000000000	0.00000000000000	-0.10643200000000	0.00000000000000	-10.66119200000000	0.00000000000000	0.00000000000000	-24.30352000000000	0.00000000000000	
0.73833400000000	-9.39528100000000	82.58784799999999	-14.88109500000000	0.35596600000000	0.00000000000000	0.08555400000000	-72.32938700000000	757.80995299999995	-55.33613100000000	0.10585800000000	0.00000000000000	-0.10642900000000	0.00000000000000	-11.12250900000000	0.00000000000000	0.00000000000000	-24.29656900000000	0.00000000000000	
0.73999700000000	-9.15933700000000	89.14199900000000	-15.20229600000000	0.35937500000000	0.00000000000000	0.08617000000000	-72.95707899999999	754.19177999999999	-54.95067900000000	0.10508600000000	0.00000000000000	-0.10642300000000	0.00000000000000	-11.47881200000000	0.00000000000000	0.00000000000000	-24.28821300000000	0.00000000000000	
0.74166700000000	-8.77299700000000	95.57625000000000	-15.37916500000000	0.36258700000000	0.00000000000000	0.08674600000000	-73.57965900000001	750.45924800000000	-54.54513800000000	0.10432400000000	0.00000000000000	-0.10641300000000	0.00000000000000	-11.73763200000000	0.00000000000000	0.00000000000000	-24.27827400000000	0.00000000000000	
0.74333300000000	-8.25184700000000	101.92691800000000	-15.42749700000000	0.36562100000000	0.00000000000000	0.08728700000000	-74.19622300000000	746.61084600000004	-54.11922000000000	0.10357300000000	0.00000000000000	-0.10640100000000	0.00000000000000	-11.90942100000000	0.00000000000000	0.00000000000000	-24.26656700000000	0.00000000000000	
0.74499900000000	-7.61289400000000	108.23932400000000	-15.36507500000000	0.36849300000000	0.00000000000000	0.08779600000000	-74.80582699999999	742.64505299999996	-53.67265000000000	0.10283300000000	0.00000000000000	-0.10638500000000	0.00000000000000	-12.00632000000000	0.00000000000000	0.00000000000000	-24.25289500000000	0.00000000000000	
0.74666300000000	-6.87319200000000	114.56293800000000	-15.21008100000000	0.37122000000000	0.00000000000000	0.08827700000000	-75.40749200000000	738.56034599999998	-53.20517500000000	0.10210400000000	0.00000000000000	-0.10636600000000	0.00000000000000	-12.04099200000000	0.00000000000000	0.00000000000000	-24.23705500000000	0.00000000000000	
0.74832900000000	-6.04869200000000	120.94701000000001	-14.97976000000000	0.37381200000000	0.00000000000000	0.08873200000000	-76.00020100000000	734.35520599999995	-52.71656400000000	0.10138800000000	0.00000000000000	-0.10634300000000	0.00000000000000	-12.02562000000000	0.00000000000000	0.00000000000000	-24.21883200000000	0.00000000000000	
0.74999900000000	-5.15338600000000	127.43694700000000	-14.68937400000000	0.37628100000000	0.00000000000000	0.08916400000000	-76.58290000000000	730.02812600000004	-52.20660800000000	0.10068400000000	0.00000000000000	-0.10631600000000	0.00000000000000	-11.97110300000000	0.00000000000000	0.00000000000000	-24.19800600000000	0.00000000000000	
0.75166400000000	-4.19874900000000	134.07158999999999	-14.35150200000000	0.37863700000000	0.00000000000000	0.08957400000000	-77.15450199999999	725.57761600000003	-51.67512700000000	0.09999200000000	0.00000000000000	-0.10628500000000	0.00000000000000	-11.88650200000000	0.00000000000000	0.00000000000000	-24.17435000000000	0.00000000000000	
0.75333200000000	-3.19346700000000	140.88142500000001	-13.97565800000000	0.38088800000000	0.00000000000000	0.08996400000000	-77.71388500000000	721.00221199999999	-51.12196800000000	0.09931500000000	0.00000000000000	-0.10624900000000	0.00000000000000	-11.77871500000000	0.00000000000000	0.00000000000000	-24.14762600000000	0.00000000000000	
0.75499700000000	-2.14343700000000	147.88771800000001	-13.56821200000000	0.38304000000000	0.00000000000000	0.09033700000000	-78.25989700000000	716.30048099999999	-50.54701100000000	0.09865100000000	0.00000000000000	-0.10621000000000	0.00000000000000	-11.65237700000000	0.00000000000000	0.00000000000000	-24.11759500000000	0.00000000000000	
0.75666200000000	-1.05196900000000	155.10245100000000	-13.13256100000000	0.38510000000000	0.00000000000000	0.09069200000000	-78.79135300000000	711.47103500000003	-49.95016800000000	0.09800100000000	0.00000000000000	-0.10616500000000	0.00000000000000	-11.50994800000000	0.00000000000000	0.00000000000000	-24.08400600000000	0.00000000000000	
0.75833400000000	0.07984700000000	162.52892900000001	-12.66949400000000	0.38707400000000	0.00000000000000	0.09103100000000	-79.30704299999999	706.51253199999996	-49.33138800000000	0.09736600000000	0.00000000000000	-0.10611700000000	0.00000000000000	-11.35195300000000	0.00000000000000	0.00000000000000	-24.04660800000000	0.00000000000000	
0.76001000000000	1.25267500000000	170.16288299999999	-12.17768100000000	0.38896600000000	0.00000000000000	0.09135600000000	-79.80572800000000	701.42368999999997	-48.69065900000000	0.09674500000000	0.00000000000000	-0.10606300000000	0.00000000000000	-11.17732100000000	0.00000000000000	0.00000000000000	-24.00514300000000	0.00000000000000	
0.76166200000000	2.46841600000000	177.99389700000000	-11.65424000000000	0.39078000000000	0.00000000000000	0.09166700000000	-80.28614500000000	696.20329300000003	-48.02800700000000	0.09614000000000	0.00000000000000	-0.10600400000000	0.00000000000000	-10.98379300000000	0.00000000000000	0.00000000000000	-23.95934700000000	0.00000000000000	
0.76333300000000	3.72968500000000	186.00699599999999	-11.09531000000000	0.39252100000000	0.00000000000000	0.09196500000000	-80.74700799999999	690.85020299999996	-47.34350400000000	0.09555100000000	0.00000000000000	-0.10594000000000	0.00000000000000	-10.76833500000000	0.00000000000000	0.00000000000000	-23.90895600000000	0.00000000000000	
0.76499800000000	5.03933900000000	194.18423899999999	-10.49660200000000	0.39419100000000	0.00000000000000	0.09225000000000	-81.18701299999999	685.36337000000003	-46.63726500000000	0.09497700000000	0.00000000000000	-0.10587100000000	0.00000000000000	-10.52754700000000	0.00000000000000	0.00000000000000	-23.85370100000000	0.00000000000000	
